<svg xmlns="http://www.w3.org/2000/svg" viewBox="0 0 400 361" width="400" height="361">
  <path
      fill="none"
      d="m198.5 410.8c-75.1 0-150.3 0-225.4 0.1-3.3 0-4.1-0.6-4.1-4.1q0.2-225.8 0-451.7c0-3.8 1.1-4.2 4.5-4.2q225.5 0.1 451.1 0c3.5 0 4.4 0.6 4.4 4.3q-0.2 225.6 0 451.2c0 4-1.1 4.5-4.7 4.5-75.3-0.1-150.6-0.1-225.8-0.1zm41.3-351.9c-13.7 0-27.1 0.4-40.6-0.1-9.1-0.4-14.8 0.7-19.2 11-6.6 15.1-15.7 29.4-23.7 44-8.1 15-16.4 30-24.5 45-3 5.5-6.3 10.8-9 16.6-1.1 2.3-1.6 3.8-0.2 6.2 9.1 15.9 17.9 32 27 47.9 8.3 14.4 16.7 28.7 25 42.9 2.1 3.6 4.9 6.9 6.4 10.7 2.2 6 6.8 10.6 9.3 16.4 0.5 1.1 1.6 1.6 2.9 1.6q25-0.1 49.9 0c2.4 0 2.5-1 1.5-2.8-3.6-6.5-7-13.2-11-19.4-5.8-8.9-10.8-18.3-16-27.5-5.3-9.4-10.7-18.7-16-28-8.5-15.1-17.3-30.1-26-45.2-0.8-1.2-1.6-2.3-0.6-4 3.9-6.9 7.3-14.2 11.7-20.8 6.1-9.4 11.2-19.2 16.5-29 5-9.2 10.6-18.3 15.7-27.5 5.4-9.8 10.2-20.1 16.8-29.3 1.8-2.4 3.6-5.1 4.1-8.7zm-175.3 120.5c0 38.8 0.1 77.6-0.1 116.3 0 4.6 1.3 5.6 5.6 5.5 13-0.3 25.9-0.3 38.9-0.1 3.6 0.1 4.4-1 4.4-4.4q-0.2-116.6 0-233.3c0-3.8-1.1-4.6-4.7-4.6-13 0.3-26 0.3-38.9 0-4.2-0.1-5.3 1-5.3 5.2 0.2 38.5 0.1 76.9 0.1 115.4zm238.9 61.3c-17 0.3-31.2 12.4-31.4 31-0.1 17.4 13.7 31.4 31.1 31.2 18.2-0.2 31.1-12.7 31.2-30.8 0-18.8-12.3-30.5-30.9-31.4z"
    />
    <path
      fill="#495151"
      d="m239.8 58.9c-0.5 3.6-2.3 6.3-4.1 8.8-6.6 9.1-11.4 19.4-16.8 29.2-5.1 9.3-10.7 18.3-15.7 27.6-5.3 9.7-10.4 19.5-16.5 28.9-4.4 6.6-7.8 13.9-11.7 20.8-1 1.7-0.2 2.8 0.6 4 8.7 15.1 17.5 30.1 26 45.2 5.3 9.4 10.7 18.7 16 28 5.2 9.2 10.2 18.6 16 27.5 4 6.2 7.4 12.9 11 19.5 1 1.7 0.9 2.7-1.5 2.7q-24.9-0.1-49.9 0c-1.3 0-2.4-0.5-2.9-1.6-2.4-5.8-7.1-10.4-9.3-16.4-1.5-3.8-4.3-7.1-6.4-10.6-8.3-14.3-16.7-28.6-25-43-9.1-15.9-17.9-32-27-47.9-1.4-2.4-0.9-3.9 0.2-6.2 2.7-5.7 6-11.1 9-16.6 8.1-15 16.3-30 24.5-44.9 8-14.7 17.1-28.9 23.7-44.1 4.4-10.3 10.1-11.4 19.2-11 13.5 0.5 26.9 0.1 40.6 0.1z"
    />
    <path
      fill="#4a5151"
      d="m64.5 179.4c0-38.5 0.1-76.9-0.1-115.4 0-4.2 1.1-5.3 5.2-5.2 13 0.3 26 0.3 39 0 3.6 0 4.7 0.8 4.7 4.6q-0.2 116.7 0 233.3c0 3.4-0.8 4.5-4.4 4.4-12.9-0.2-25.9-0.2-38.9 0.1-4.3 0.1-5.6-0.9-5.6-5.5 0.2-38.7 0.1-77.5 0.1-116.3z"
    />
    <path
      fill="#4784c4"
      d="m303.4 240.7c18.6 1 30.9 12.6 30.9 31.3 0 18.2-13 30.7-31.2 30.9-17.4 0.2-31.2-13.9-31-31.2 0.1-18.6 14.3-30.7 31.3-31z"
    />
</svg>
