<svg xmlns="http://www.w3.org/2000/svg" viewBox="0 0 1400 350" width="1400" height="350">
  <path
    fill="#008cff"
    d="M1306.8 315.1c-20.1 0-36.3-16.2-36.3-36.3 0-20 16.2-36.2 36.3-36.2 20 0 36.2 16.2 36.2 36.2 0 20.1-16.2 36.3-36.2 36.3z"
  />
  <path
    fill="#474f4f"
    d="M1239.1 215.1c0 60.1-44.2 103.5-102.6 103.5-58.5 0-101.9-43.4-101.9-103.5 0-61 43.4-103.5 101.9-103.5 58.4 0 102.6 42.5 102.6 103.5zm-52.6 0c0-36.8-24.2-55.9-50-55.9-25.9 0-49.3 19.1-49.3 55.9 0 36.7 23.4 55.1 49.3 55.1 25.8 0 50-18.4 50-55.1zM1006.3 167.5v-46.7H937c20.9 0 30-13.4 30-30.9V59h-47.5v30.9c0 17.5-10 30.9-30.1 30.9h-10v46.7h35.1v84.9c0 37.6 24.2 60.1 61.7 60.1h30.1v-46.7h-15.9c-15 0-23.4-5.9-23.4-22.6v-75.7zM851.9 312.7h-48.4c-.9-5-1.7-15.8-1.7-23.3-10 15-28.4 28.3-57.6 28.3-41.7 0-66.8-27.5-66.8-58.4 0-35.1 25.9-54.2 58.5-59.3l47.5-6.6c11.7-1.7 15-7.5 15-14.2 0-14.2-10.8-25.1-33.3-25.1-13.4 0-23.4 5.1-29.2 13.4h-53.5c6.7-28.4 35.1-55.9 82.7-55.9 61.7 0 85.1 34.2 85.1 74.3v95.9c0 10.1.8 24.2 1.7 30.9zm-53.5-87.6l-44.2 6.7c-13.3 1.6-24.2 9.1-24.2 24.2 0 11.7 8.4 22.5 25 22.5 22.6 0 43.4-10.8 43.4-45.1v-8.3zM590.6 194.2l-28.3-5.8c-10.9-1.7-17.6-8.4-17.6-17.6 0-10.8 10.9-19.2 25.1-19.2 16.7 0 25 7.6 28.3 15.9h47.6c-2.5-20.9-20.9-55.9-76.8-55.9-41.7 0-72.6 28.4-72.6 63.4 0 27.5 16.7 50.1 55.1 58.4l25 5.9c15.9 3.3 21.7 10.8 21.7 19.2 0 10-8.3 19.2-25.8 19.2-18.4 0-29.2-8.4-33.4-19.2h-47.6c2.5 21.7 22.5 60.1 81 60.1 51.7 0 75.9-32.6 75.9-64.3 0-28.4-19.2-51.8-57.6-60.1zM465.4 228.4H325.2c1.7 25.9 23.4 45.1 49.3 45.1 16.7 0 28.3-5.8 35-15h52.6c-9.2 32.5-40.9 60.1-87.6 60.1-53.4 0-101-38.4-101-104.4 0-62.6 45.9-102.6 96-102.6 60.9 0 96.8 38.4 96.8 101 0 7.5-.9 15-.9 15.8zm-51.7-35.9c0-19.2-13.4-38.4-43.4-38.4-27.6 0-42.6 20.9-43.4 38.4zM56.8 31.3v281.2h57.1V31.3zm127.3 135.9l77.3-135.9h-62.9l-75.9 139.5 81.7 141.7h63.6z"
  />
</svg>
